<svg xmlns="http://www.w3.org/2000/svg" width="77" height="77" viewBox="34 31 77 77" fill="none">
  <path fill="#ffffff" d="M34 61C34 52.4 34.9 46.3 36.9 41.8C40.4 34.2 46.3 31 53.3 31H111C110.1 39.7 105.4 45.9 97.6 48.3C97 48.5 96.1 48.6 95.1 48.6H50.8C43.8 48.6 37.5 53.2 34 61Z"/>
  <path fill="#ffffff" d="M34 82.6C34 72.8 36.5 64.3 42.8 58.3C46.2 55.1 50.3 54 55 54H82C80.8 62.3 75.1 68.9 66.4 71.1C65.3 71.4 64.3 71.5 63.1 71.5H47.2C41.1 71.5 36.4 76.1 34 82.6Z"/>
  <path fill="#ffffff" d="M34 108V92.4C34 84.8 40.9 77.7 49.2 76.2C50.1 76.1 50.8 76 52 76V91.5C52 99.6 44.9 106.5 36.7 107.8C35.8 107.9 34.9 108 34 108Z"/>
</svg>
